<?xml version="1.0" encoding="UTF-8"?>
<svg id="Calque_1" xmlns="http://www.w3.org/2000/svg" viewBox="0 0 792.99 923.52">
  <defs>
    <style>
      .cls-1 {
        fill: #2084d7;
      }

      .cls-2 {
        fill: #1f2e53;
      }
    </style>
  </defs>
  <path class="cls-1" d="M170.32.62c-25.4,3.3-46.5,18.1-57.5,40.5-8.7,17.8-7.9-13.3-7.9,300.4v278.5l3,.8c5.2,1.4,20.6,3.6,30.2,4.2l9.3.7.2-280.3.3-280.3,2.7-4.6c3.6-6.2,10.4-12.2,16.4-14.5,4.8-1.8,10.9-1.9,222.4-1.9h217.5l5.1,2.7c5.7,3,11.2,8.7,14.6,15l2.3,4.3.5,170.8.5,170.8,7.1-7.3c7.9-8.2,22.6-24.4,29.7-32.9l4.7-5.7-.2-150.3c-.3-142.4-.4-150.7-2.2-156.9-7.2-25.7-26.6-44.7-53.2-52.2l-7.9-2.3L391.92.02c-118.8-.1-218.5.2-221.6.6Z"/>
  <path class="cls-2" d="M311.72,104.12c-3.4,1.4-6.3,5.9-6.3,9.7,0,4.1,3.6,8.6,7.7,9.8,2.7.8,25.9,1,77.6.8l73.9-.3,2.9-3.3c4-4.5,4-9.9,0-14.4l-2.9-3.3-74.9-.2c-62.2-.2-75.3,0-78,1.2Z"/>
  <path class="cls-1" d="M707.02,159.62c.7,26,.7,26.4,4.8,27.8,9.5,3.5,22.1,14.2,26.9,23,8.3,15.3,7.2,41.6-2.9,72.2-17.2,51.7-59.5,106.2-129.9,167.7-8.5,7.4-27.9,22.8-30.4,24.3-1.3.7-.8,1.7,2.7,5.8l4.2,5.1-26.3,17.6-26.2,17.7-8.4-1.2-8.5-1.3-4.5,4.9c-4.4,4.7-18.5,20.5-24.3,27.2l-2.8,3.2,6.2,8.5c3.4,4.7,6.7,8.5,7.2,8.5s10-3.5,21-7.9c11.1-4.3,20.8-8.1,21.6-8.3,1.1-.4,2-3.1,2.8-8.2l1.3-7.5,7.7-5.5c4.2-2.9,16.2-11,26.6-17.9l18.8-12.6,6.1,7c3.3,3.8,6.2,6.9,6.5,6.9,2.3,0,40.5-30.7,58.6-47,56.5-51.1,98.4-110.1,116.2-163.5,11.6-35.2,13.9-62.3,7.4-89.4-3.8-15.7-14.4-33.7-26.6-45.3-10-9.3-28.5-20.4-45.6-27.2-8.1-3.2-8.8-3.2-8.9-.4-.1,1.9-.3,1.8-1-.7-.4-1.7-.6,5.6-.3,16.5Z"/>
  <path class="cls-1" d="M74.22,416.22c-12.8,15.9-15.4,19.4-23.2,30.8-25.8,37.3-42,73.1-48.8,107.6-1.7,9.1-2.2,15-2.2,28-.1,14.7.2,17.7,2.6,27.2,4.6,17.9,12.6,31.7,25.9,44.3,21.8,20.7,54,33.5,94.4,37.6,13.3,1.3,53.9.7,68.5-1.1,36.9-4.4,91.9-16.8,122.6-27.6l10.2-3.5,6.8,4.7c11.9,8.1,21.6,11.8,35.9,13.4,16.5,2,35.4-2.2,47.9-10.5,14-9.3,25.4-26.5,27.4-41.5.8-5.6.7-6-1-5.4-1.8.5-39.7,18.6-43.1,20.4-1.4.8-6.3-1.2-23.2-9.5-11.8-5.8-21.7-11-22-11.6-.7-1.1,5.3-39,6.3-40.1.9-.8,26.2-14.3,40.3-21.4l11.4-5.7-7-3.3c-15.4-7.2-33.2-8.8-48.8-4.5-26.9,7.4-44.3,26.7-50.1,55.7-1.1,5.3-2.3,8.5-3.7,9.6-5.3,4.5-62.1,20-93.9,25.7-29.1,5.2-65.2,6.9-85,4.1-40.2-5.6-65-21.8-70.9-46.5-1.8-7.1-1.5-26.5.4-35.9,2.7-13.2,10.2-33.3,19-51.1l8.4-17,.4-34c.2-18.7.1-36.5-.2-39.4l-.6-5.5-4.7,6Z"/>
  <path class="cls-2" d="M744.12,457.42c-2.1,2.6-11.1,12.5-20,22-56.6,60.8-144.9,128.3-232.1,177.4-78.5,44.3-160.3,77.6-238.1,97.1-86.8,21.8-157.7,26-227.8,13.6-6.5-1.2-12-1.9-12.2-1.7-.6.6,26,7.7,37,9.9,5,1,14.2,2.5,20.5,3.4,6.3.8,12.9,1.8,14.7,2.1l3.2.5.1,32.6c.1,35.9.7,41.6,6.1,55.3,4.6,11.3,9.5,18.7,18.9,28.1,12.3,12.3,24.8,19.1,43.1,23.5,7,1.7,20.3,1.8,221.4,2.2,217.2.3,231.6.1,245-3.4,9.4-2.4,25.3-10.6,32.1-16.6,14.8-12.8,24.6-29.4,29.2-49.3,1.4-6.2,1.6-24.1,1.9-165.5l.4-158.4,6.7-7.1c16.1-16.8,30.7-34.8,43.5-53.6,11.3-16.7,13.8-21.4,6.4-12.1ZM407.72,782.52c8.6,3.4,17.4,10.5,23,18.6,19.4,28.2,8.8,65.6-22.3,78.6-18.8,7.9-41.4,3.4-55.8-11.1-10.3-10.4-15.2-22.3-15.2-37,0-15.7,4.3-26.5,14.9-37.1,6.9-6.9,11.9-10,21.1-13.1,8-2.6,26.2-2.1,34.3,1.1Z"/>
</svg>