<?xml version="1.0" standalone="no"?>
<!DOCTYPE svg PUBLIC "-//W3C//DTD SVG 20010904//EN"
 "http://www.w3.org/TR/2001/REC-SVG-20010904/DTD/svg10.dtd">
<svg version="1.0" xmlns="http://www.w3.org/2000/svg"
 width="1024.000000pt" height="1536.000000pt" viewBox="0 0 1024.000000 1536.000000"
 preserveAspectRatio="xMidYMid meet">

<g transform="translate(0.000000,1536.000000) scale(0.100000,-0.100000)"
fill="#000000" stroke="none">
<path d="M2939 12040 c-254 -33 -465 -181 -575 -405 -87 -178 -79 133 -79
-3004 l0 -2785 30 -8 c52 -14 206 -36 302 -42 l93 -7 2 2803 3 2803 27 46 c36
62 104 122 164 145 48 18 109 19 2224 19 l2175 0 51 -27 c57 -30 112 -87 146
-150 l23 -43 5 -1708 5 -1708 71 73 c79 82 226 244 297 329 l47 57 -2 1503
c-3 1424 -4 1507 -22 1569 -72 257 -266 447 -532 522 l-79 23 -2160 1 c-1188
1 -2185 -2 -2216 -6z"/>
<path d="M4353 11005 c-34 -14 -63 -59 -63 -97 0 -41 36 -86 77 -98 27 -8 259
-10 776 -8 l739 3 29 33 c40 45 40 99 0 144 l-29 33 -749 2 c-622 2 -753 0
-780 -12z"/>
<path d="M8306 10450 c7 -260 7 -264 48 -278 95 -35 221 -142 269 -230 83
-153 72 -416 -29 -722 -172 -517 -595 -1062 -1299 -1677 -85 -74 -279 -228
-304 -243 -13 -7 -8 -17 27 -58 l42 -51 -263 -176 -262 -177 -84 12 -85 13
-45 -49 c-44 -47 -185 -205 -243 -272 l-28 -32 62 -85 c34 -47 67 -85 72 -85
5 0 100 35 210 79 111 43 208 81 216 83 11 4 20 31 28 82 l13 75 77 55 c42 29
162 110 266 179 l188 126 61 -70 c33 -38 62 -69 65 -69 23 0 405 307 586 470
565 511 984 1101 1162 1635 116 352 139 623 74 894 -38 157 -144 337 -266 453
-100 93 -285 204 -456 272 -81 32 -88 32 -89 4 -1 -19 -3 -18 -10 7 -4 17 -6
-56 -3 -165z"/>
<path d="M1978 7884 c-128 -159 -154 -194 -232 -308 -258 -373 -420 -731 -488
-1076 -17 -91 -22 -150 -22 -280 -1 -147 2 -177 26 -272 46 -179 126 -317 259
-443 218 -207 540 -335 944 -376 133 -13 539 -7 685 11 369 44 919 168 1226
276 l102 35 68 -47 c119 -81 216 -118 359 -134 165 -20 354 22 479 105 140 93
254 265 274 415 8 56 7 60 -10 54 -18 -5 -397 -186 -431 -204 -14 -8 -63 12
-232 95 -118 58 -217 110 -220 116 -7 11 53 390 63 401 9 8 262 143 403 214
l114 57 -70 33 c-154 72 -332 88 -488 45 -269 -74 -443 -267 -501 -557 -11
-53 -23 -85 -37 -96 -53 -45 -621 -200 -939 -257 -291 -52 -652 -69 -850 -41
-402 56 -650 218 -709 465 -18 71 -15 265 4 359 27 132 102 333 190 511 l84
170 4 340 c2 187 1 365 -2 394 l-6 55 -47 -60z"/>
<path d="M8677 7472 c-21 -26 -111 -125 -200 -220 -566 -608 -1449 -1283
-2321 -1774 -785 -443 -1603 -776 -2381 -971 -868 -218 -1577 -260 -2278 -136
-65 12 -120 19 -122 17 -6 -6 260 -77 370 -99 50 -10 142 -25 205 -34 63 -8
129 -18 147 -21 l32 -5 1 -326 c1 -359 7 -416 61 -553 46 -113 95 -187 189
-281 123 -123 248 -191 431 -235 70 -17 203 -18 2214 -22 2172 -3 2316 -1
2450 34 94 24 253 106 321 166 148 128 246 294 292 493 14 62 16 241 19 1655
l4 1584 67 71 c161 168 307 348 435 536 113 167 138 214 64 121z m-3364 -3251
c86 -34 174 -105 230 -186 194 -282 88 -656 -223 -786 -188 -79 -414 -34 -558
111 -103 104 -152 223 -152 370 0 157 43 265 149 371 69 69 119 100 211 131
80 26 262 21 343 -11z"/>
</g>
</svg>
